<svg id="mermaid-1600839202466" width="616.73828125" xmlns="http://www.w3.org/2000/svg" viewBox="0  0 352.421875 330.125"><style>#mermaid-1600839202466{font-family:"trebuchet ms",verdana,arial;font-size:16px;fill:#333;}#mermaid-1600839202466 .error-icon{fill:#552222;}#mermaid-1600839202466 .error-text{fill:#552222;stroke:#552222;}#mermaid-1600839202466 .edge-thickness-normal{stroke-width:2px;}#mermaid-1600839202466 .edge-thickness-thick{stroke-width:3.5px;}#mermaid-1600839202466 .edge-pattern-solid{stroke-dasharray:0;}#mermaid-1600839202466 .edge-pattern-dashed{stroke-dasharray:3;}#mermaid-1600839202466 .edge-pattern-dotted{stroke-dasharray:2;}#mermaid-1600839202466 .marker{fill:#333333;}#mermaid-1600839202466 .marker.cross{stroke:#333333;}#mermaid-1600839202466 svg{font-family:"trebuchet ms",verdana,arial;font-size:16px;}#mermaid-1600839202466 g.stateGroup text{fill:#9370DB;stroke:none;font-size:10px;}#mermaid-1600839202466 g.stateGroup text{fill:#333;stroke:none;font-size:10px;}#mermaid-1600839202466 g.stateGroup .state-title{font-weight:bolder;fill:black;}#mermaid-1600839202466 g.stateGroup rect{fill:#ECECFF;stroke:#9370DB;}#mermaid-1600839202466 g.stateGroup line{stroke:#333333;stroke-width:1;}#mermaid-1600839202466 .transition{stroke:#333333;stroke-width:1;fill:none;}#mermaid-1600839202466 .stateGroup .composit{fill:white;border-bottom:1px;}#mermaid-1600839202466 .stateGroup .alt-composit{fill:#e0e0e0;border-bottom:1px;}#mermaid-1600839202466 .state-note{stroke:#aaaa33;fill:#fff5ad;}#mermaid-1600839202466 .state-note text{fill:black;stroke:none;font-size:10px;}#mermaid-1600839202466 .stateLabel .box{stroke:none;stroke-width:0;fill:#ECECFF;opacity:0.5;}#mermaid-1600839202466 .edgeLabel .label rect{fill:hsl(80,100%,96.2745098039%);opacity:0.5;}#mermaid-1600839202466 .edgeLabel .label text{fill:rgb(9.5000000001,9.5000000001,9.5000000001);}#mermaid-1600839202466 .label div .edgeLabel{color:rgb(9.5000000001,9.5000000001,9.5000000001);}#mermaid-1600839202466 .stateLabel text{fill:black;font-size:10px;font-weight:bold;}#mermaid-1600839202466 .node circle.state-start{fill:#333333;stroke:black;}#mermaid-1600839202466 .node circle.state-end{fill:hsl(240,60%,86.2745098039%);stroke:white;stroke-width:1.5;}#mermaid-1600839202466 .end-state-inner{fill:white;stroke-width:1.5;}#mermaid-1600839202466 .node rect{fill:#ECECFF;stroke:#9370DB;stroke-width:1px;}#mermaid-1600839202466 #statediagram-barbEnd{fill:#333333;}#mermaid-1600839202466 .statediagram-cluster rect{fill:#ECECFF;stroke:#9370DB;stroke-width:1px;}#mermaid-1600839202466 .cluster-label,#mermaid-1600839202466 .nodeLabel{color:#333;}#mermaid-1600839202466 .statediagram-cluster rect.outer{rx:5px;ry:5px;}#mermaid-1600839202466 .statediagram-state .divider{stroke:#9370DB;}#mermaid-1600839202466 .statediagram-state .title-state{rx:5px;ry:5px;}#mermaid-1600839202466 .statediagram-cluster.statediagram-cluster .inner{fill:white;}#mermaid-1600839202466 .statediagram-cluster.statediagram-cluster-alt .inner{fill:#e0e0e0;}#mermaid-1600839202466 .statediagram-cluster .inner{rx:0;ry:0;}#mermaid-1600839202466 .statediagram-state rect.basic{rx:5px;ry:5px;}#mermaid-1600839202466 .statediagram-state rect.divider{stroke-dasharray:10,10;fill:#efefef;}#mermaid-1600839202466 .note-edge{stroke-dasharray:5;}#mermaid-1600839202466 .statediagram-note rect{fill:#fff5ad;stroke:#aaaa33;stroke-width:1px;rx:0;ry:0;}#mermaid-1600839202466 .statediagram-note rect{fill:#fff5ad;stroke:#aaaa33;stroke-width:1px;rx:0;ry:0;}#mermaid-1600839202466 .statediagram-note text{fill:black;}#mermaid-1600839202466 .statediagram-note .nodeLabel{color:black;}#mermaid-1600839202466 #dependencyStart,#mermaid-1600839202466 #dependencyEnd{fill:#333333;stroke:#333333;stroke-width:1;}#mermaid-1600839202466:root{--mermaid-font-family:"trebuchet ms",verdana,arial;}#mermaid-1600839202466 state{fill:apa;}</style><g></g><defs><marker id="dependencyEnd" refX="19" refY="7" markerWidth="20" markerHeight="28" orient="auto"><path d="M 19,7 L9,13 L14,7 L9,1 Z"></path></marker></defs><g id="start1" class="stateGroup" transform="translate(248.73828172683716,0 )" data-x-shift="248.73828172683716"><circle class="start-state" r="5" cx="13" cy="13"></circle></g><g id="BT_order_inputted" class="stateGroup" transform="translate(200.78516006469727,45.999999046325684 )" data-x-shift="200.78516006469727"><rect x="8" y="8" width="105.90625" height="27.53125" rx="5"></rect><text x="16" y="26" font-size="24" class="state-title">BT_order_inputted</text></g><g id="BT_statement_recieved" class="stateGroup" transform="translate(136.0390625,109.53124904632568 )" data-x-shift="136.0390625"><rect x="8" y="8" width="128.265625" height="27.53125" rx="5"></rect><text x="16" y="26" font-size="24" class="state-title">BT_statement_recieved</text></g><g id="BT_statement_inputted" class="stateGroup" transform="translate(15.87890625,173.06249904632568 )" data-x-shift="15.87890625"><rect x="8" y="8" width="127.671875" height="27.53125" rx="5"></rect><text x="16" y="26" font-size="24" class="state-title">BT_statement_inputted</text></g><g id="BT_expences_calculated" class="stateGroup" transform="translate(0,236.59374904632568 )" data-x-shift="0"><rect x="8" y="8" width="132.1875" height="27.53125" rx="5"></rect><text x="16" y="26" font-size="24" class="state-title">BT_expences_calculated</text></g><g id="BT_statement_rebounded" class="stateGroup" transform="translate(198.1875,236.59374904632568 )" data-x-shift="198.1875"><rect x="8" y="8" width="138.234375" height="27.53125" rx="5"></rect><text x="16" y="26" font-size="24" class="state-title">BT_statement_rebounded</text></g><g id="end1" class="stateGroup" transform="translate(59.09375,300.1249990463257 )" data-x-shift="59.09375"><circle class="end-state-outer" r="7" cx="15" cy="15"></circle><circle class="end-state-inner" r="5" cx="15" cy="15"></circle></g><path d="M261.73828125,25.999999046325684L261.73828125,27.66666571299235C261.73828125,29.333332379659016,261.73828125,32.66666571299235,261.73828125,35.999999046325684C261.73828125,39.33333237965902,261.73828125,42.66666571299235,261.73828125,44.33333237965902L261.73828125,45.999999046325684" id="edge44" class="transition" marker-end="url(#dependencyEnd)"></path><path d="M225.03488532956223,89.53124904632568L222.22438360796852,91.19791571299235C219.41388188637484,92.86458237965901,213.79287844318742,96.19791571299235,210.9823767215937,99.53124904632568C208.171875,102.86458237965901,208.171875,106.19791571299235,208.171875,107.86458237965901L208.171875,109.53124904632568" id="edge45" class="transition" marker-end="url(#dependencyEnd)"></path><path d="M171.57018760759962,153.06249904632568L168.76747404799968,154.72916571299234C165.96476048839975,156.39583237965903,160.35933336919987,159.72916571299234,154.03923991125592,163.06249904632568C147.71914645331202,166.39583237965903,140.68438665662404,169.72916571299234,137.16700675828005,171.39583237965903L133.64962685993606,173.06249904632568" id="edge46" class="transition" marker-end="url(#dependencyEnd)"></path><path d="M78.38174803246434,216.59374904632568L77.66708169372028,218.26041571299234C76.95241535497622,219.92708237965903,75.52308267748812,223.26041571299234,74.80841633874405,226.59374904632568C74.09375,229.92708237965903,74.09375,233.26041571299234,74.09375,234.92708237965903L74.09375,236.59374904632568" id="edge47" class="transition" marker-end="url(#dependencyEnd)"></path><path d="M298.4416771704378,89.53124904632568L301.2521788920315,91.19791571299235C304.0626806136252,92.86458237965901,309.6836840568126,96.19791571299235,312.4941857784063,103.15885321299235C315.3046875,110.11979071299235,315.3046875,120.70833237965901,315.3046875,131.29687404632568C315.3046875,141.88541571299234,315.3046875,152.47395737965903,315.3046875,163.06249904632568C315.3046875,173.65104071299234,315.3046875,184.23958237965903,315.3046875,194.82812404632568C315.3046875,205.41666571299234,315.3046875,216.00520737965903,313.20598279431056,222.96614487965903C311.10727808862106,229.92708237965903,306.9098686772422,233.26041571299234,304.81116397155273,234.92708237965903L302.71245926586323,236.59374904632568" id="edge48" class="transition" marker-end="url(#dependencyEnd)"></path><path d="M200.78516006469727,78.28718595417713L180.2734406789144,81.82786313620188C159.7617212931315,85.36854031822664,118.73828252156575,92.44989468227617,98.22656313578288,101.28484269763426C77.71484375,110.11979071299235,77.71484375,120.70833237965901,77.71484375,131.29687404632568C77.71484375,141.88541571299234,77.71484375,152.47395737965903,78.23951992642236,159.43489487965903C78.76419610284474,166.39583237965903,79.81354845568946,169.72916571299234,80.33822463211182,171.39583237965903L80.86290080853419,173.06249904632568" id="edge49" class="transition" marker-end="url(#dependencyEnd)"></path><path d="M251.72721386190358,153.06249904632568L255.06239175991968,154.72916571299234C258.3975696579357,156.39583237965903,265.06792545396786,159.72916571299234,268.40310335198393,166.69010321299234C271.73828125,173.65104071299234,271.73828125,184.23958237965903,271.73828125,194.82812404632568C271.73828125,205.41666571299234,271.73828125,216.00520737965903,271.9254020894819,222.96614487965903C272.11252292896376,229.92708237965903,272.4867646079275,233.26041571299234,272.6738854474094,234.92708237965903L272.86100628689127,236.59374904632568" id="edge50" class="transition" marker-end="url(#dependencyEnd)"></path><path d="M159.55078125,208.74024225899538L174.91536458333334,211.71582672355044C190.27994791666666,214.6914111881055,221.00911458333334,220.6425801172156,237.61017110899328,225.28483124843729C254.21122763465323,229.92708237965903,256.68417401930645,233.26041571299234,257.920647211633,234.92708237965903L259.15712040395965,236.59374904632568" id="edge51" class="transition" marker-end="url(#dependencyEnd)"></path><path d="M245.45323452102804,236.59374904632568L243.1674089758567,234.92708237965903C240.88158343068537,233.26041571299234,236.30993234034267,229.92708237965903,234.02410679517132,222.96614487965903C231.73828125,216.00520737965903,231.73828125,205.41666571299234,231.73828125,194.82812404632568C231.73828125,184.23958237965903,231.73828125,173.65104071299234,230.5018080576734,166.69010321299234C229.26533486534677,159.72916571299234,226.79238848069357,156.39583237965903,225.55591528836695,154.72916571299234L224.31944209604035,153.06249904632568" id="edge52" class="transition" marker-end="url(#dependencyEnd)"></path><path d="M201.99960418716182,236.59374904632568L196.38638890596818,234.92708237965903C190.77317362477456,233.26041571299234,179.54674306238726,229.92708237965903,169.70435086694542,226.59374904632568C159.86195867150352,223.26041571299234,151.40360484300706,219.92708237965903,147.17442792875883,218.26041571299234L142.94525101451057,216.59374904632568" id="edge53" class="transition" marker-end="url(#dependencyEnd)"></path><path d="M74.09375,280.1249990463257L74.09375,281.79166571299237C74.09375,283.458332379659,74.09375,286.79166571299237,74.09375,290.1249990463257C74.09375,293.458332379659,74.09375,296.79166571299237,74.09375,298.458332379659L74.09375,300.1249990463257" id="edge54" class="transition" marker-end="url(#dependencyEnd)"></path></svg>